<?xml version="1.0" standalone="no"?><!DOCTYPE svg PUBLIC "-//W3C//DTD SVG 1.1//EN" "http://www.w3.org/Graphics/SVG/1.1/DTD/svg11.dtd"><svg t="1733479354317" class="icon" viewBox="0 0 1025 1024" version="1.1" xmlns="http://www.w3.org/2000/svg" p-id="5592" xmlns:xlink="http://www.w3.org/1999/xlink" width="200.1953125" height="200"><path d="M336.457143 336.457143m-336.457143 0a336.457143 336.457143 0 1 0 672.914286 0 336.457143 336.457143 0 1 0-672.914286 0Z" fill="#8CF6FB" p-id="5593"></path><path d="M592.457143 1024c-11.702857 0-21.942857-4.388571-30.72-13.165714 0 0-333.531429-175.542857-337.92-175.542857H93.622857c-48.274286 0-87.771429-39.497143-87.771428-87.771429V296.96c0-48.274286 39.497143-87.771429 86.308571-87.771429h131.657143L561.737143 13.165714c7.314286-8.777143 19.017143-13.165714 30.72-13.165714 23.405714 0 43.885714 19.017143 43.885714 43.885714v936.228572c0 24.868571-19.017143 43.885714-43.885714 43.885714z m-29.257143-921.6L269.165714 269.165714c-13.165714 8.777143-27.794286 14.628571-42.422857 14.628572h-131.657143c-7.314286 0-14.628571 5.851429-14.628571 14.628571v452.022857c0 7.314286 5.851429 14.628571 14.628571 14.628572h130.194286c8.777143 0 17.554286 1.462857 26.331429 4.388571 11.702857 5.851429 283.794286 137.508571 313.051428 156.525714L563.2 102.4z" fill="#3C2DCB" p-id="5594"></path><path d="M904.045714 792.868571c-7.314286 7.314286-16.091429 11.702857-26.331428 11.702858s-19.017143-4.388571-26.331429-10.24c-14.628571-14.628571-14.628571-36.571429 0-51.2 128.731429-128.731429 133.12-334.994286 5.851429-465.188572l-7.314286-7.314286c-14.628571-14.628571-14.628571-36.571429 0-51.2s38.034286-14.628571 52.662857 0c157.988571 153.6 160.914286 408.137143 7.314286 566.125715 0 2.925714-2.925714 4.388571-5.851429 7.314285z m-138.971428-102.4c-7.314286 7.314286-16.091429 10.24-26.331429 10.24s-19.017143-4.388571-26.331428-10.24c-14.628571-13.165714-14.628571-35.108571-1.462858-49.737142l1.462858-1.462858c70.217143-65.828571 74.605714-175.542857 8.777142-245.76l-8.777142-8.777142c-14.628571-13.165714-14.628571-35.108571-1.462858-49.737143l1.462858-1.462857c14.628571-14.628571 38.034286-14.628571 52.662857 0 98.011429 92.16 103.862857 245.76 11.702857 345.234285-4.388571 2.925714-7.314286 7.314286-11.702857 11.702857z" fill="#D098FF" p-id="5595"></path></svg>